<?xml version="1.0" encoding="UTF-8"?>
<svg width="308px" height="108px" viewBox="0 0 308 108" version="1.1" xmlns="http://www.w3.org/2000/svg" xmlns:xlink="http://www.w3.org/1999/xlink">
    <!-- Generator: Sketch 52.4 (67378) - http://www.bohemiancoding.com/sketch -->
    <title>Group 13</title>
    <desc>Created with Sketch.</desc>
    <defs>
        <polygon id="path-1" points="0 108 308 108 308 0 0 0"></polygon>
    </defs>
    <g id="Page-1" stroke="none" stroke-width="1" fill="none" fill-rule="evenodd">
        <g id="Case-Study---Budgit" transform="translate(-566.000000, -1022.000000)">
            <g id="Group-13" transform="translate(566.000000, 1022.000000)">
                <path d="M33.5617978,68.6651481 C35.3539326,67.5330296 36.3314607,65.5922551 36.3314607,62.6810934 C36.3314607,59.9316629 35.5168539,57.9908884 33.8876404,56.6970387 C32.258427,55.4031891 29.6516854,54.7562642 26.3932584,54.7562642 L21.505618,54.7562642 L21.505618,70.2824601 L25.5786517,70.2824601 C29,70.2824601 31.6067416,69.7972665 33.5617978,68.6651481 Z M21.1797753,28.3940774 L21.1797753,41.4943052 L24.7640449,41.4943052 C28.0224719,41.4943052 30.3033708,41.0091116 31.6067416,39.8769932 C32.9101124,38.7448747 33.5617978,36.9658314 33.5617978,34.5398633 C33.5617978,32.4373576 32.9101124,30.8200456 31.4438202,29.8496583 C29.9775281,28.8792711 27.6966292,28.3940774 24.2752809,28.3940774 L21.1797753,28.3940774 Z M53.6011236,52.6537585 C56.5337079,55.2414579 58,58.9612756 58,63.9749431 C58,71.738041 55.0674157,77.2369021 49.3651685,80.309795 C43.6629213,83.3826879 35.5168539,85 25.0898876,85 L0,85 L0,14 L22.3202247,14 C32.9101124,14 41.0561798,15.4555809 46.5955056,18.2050114 C52.1348315,20.9544419 54.9044944,25.8063781 54.9044944,32.2756264 C54.9044944,36.4806378 53.6011236,39.8769932 51.1573034,42.3029613 C48.7134831,44.7289294 45.6179775,46.3462415 41.8707865,47.3166287 C46.9213483,48.4487472 50.6685393,50.2277904 53.6011236,52.6537585 Z" id="Fill-1" fill="#303030"></path>
                <path d="M113,85.0401146 L95.247557,85.0401146 L94.5960912,78.9971347 C90.8501629,84.3868195 85.47557,87 78.3094463,87 C73.0977199,87 69.3517915,85.530086 66.7459283,82.4253009 C64.1400651,79.3237822 63,75.0757307 63,69.5243553 L63,30 L83.3583062,30 L83.3583062,66.9095415 C83.3583062,68.8710602 83.6840391,70.3409742 84.1726384,71.1575931 C84.8241042,71.974212 85.6384365,72.3008596 86.6156352,72.3008596 C87.5928339,72.3008596 88.5700326,71.974212 89.7100977,71.1575931 C90.8501629,70.3409742 91.8273616,69.1977077 92.6416938,67.7261605 L92.6416938,30 L113,30 L113,85.0401146 Z" id="Fill-3" fill="#303030"></path>
                <path d="M153.659763,67.851927 L153.659763,45.9452333 C152.683432,44.9716024 151.707101,44.1602434 150.730769,43.673428 C149.754438,43.1866126 148.778107,42.862069 147.476331,42.862069 C145.035503,42.862069 143.08284,43.9979716 141.781065,46.4320487 C140.316568,48.8661258 139.66568,52.5983773 139.66568,57.7910751 C139.66568,63.7951318 140.316568,67.851927 141.455621,69.7991886 C142.594675,71.7464503 144.384615,72.7200811 146.5,72.7200811 C149.428994,72.7200811 151.707101,71.0973631 153.659763,67.851927 Z M174,8.94726166 L174,85.0527383 L155.93787,85.0527383 L155.286982,79.3732252 C151.381657,84.5659229 146.174556,87 139.828402,87 C132.994083,87 127.786982,84.4036511 124.207101,79.0486815 C120.789941,73.8559838 119,66.5537525 119,57.3042596 C119,51.7870183 119.976331,46.7565923 121.928994,42.3752535 C123.881657,37.9939148 126.485207,34.5862069 130.065089,31.989858 C133.482249,29.5557809 137.550296,28.2576065 141.943787,28.2576065 C146.662722,28.2576065 150.568047,29.7180527 153.822485,32.4766734 L153.822485,7 L174,8.94726166 Z" id="Fill-5" fill="#303030"></path>
                <path d="M201.778393,42.8438349 C200.65374,44.1502569 200.01108,45.7832844 200.01108,48.0678899 C200.01108,50.5174312 200.65374,52.4770642 201.778393,53.6218165 C202.903047,54.9266055 204.350637,55.5814495 206.277008,55.5814495 C210.454294,55.5814495 212.383878,52.9669725 212.383878,47.7429174 C212.383878,45.2933761 211.900277,43.6603486 210.936288,42.5172294 C209.973906,41.3741101 208.367258,40.8842018 206.277008,40.8842018 C204.350637,41.0458716 202.903047,41.7007156 201.778393,42.8438349 Z M236,33.535578 C232.466981,35.1686055 227.3241,35.9851193 220.576177,35.9851193 C224.271468,37.6181468 226.843712,39.412844 228.609418,41.5357798 C230.376731,43.6603486 231.180055,46.5997982 231.180055,50.3557615 C231.180055,53.7834862 230.216066,56.8878716 228.288089,59.6640183 C226.360111,62.4401651 223.468144,64.5631009 219.933518,66.1961284 C216.238227,67.6642202 212.060942,68.4807339 207.240997,68.4807339 C204.67036,68.4807339 202.743989,68.3190642 201.457064,68.1557615 C200.65374,68.6456697 200.171745,69.2972477 200.171745,70.1137615 C200.171745,70.9302752 200.493075,71.4218165 201.137341,71.9117248 C201.778393,72.401633 203.224377,72.5633028 205.313019,72.5633028 L213.187202,72.5633028 C217.684211,72.5633028 221.540166,73.2181468 224.914127,74.6878716 C228.288089,75.9942936 230.698061,77.9539266 232.626039,80.5667706 C234.393352,83.0163119 235.357341,85.9541284 235.357341,89.0585138 C235.357341,94.9357798 232.786704,99.6731927 227.647036,102.939248 C222.504155,106.366972 215.113573,108 205.473684,108 C198.404432,108 192.781163,107.183486 188.764543,105.715394 C184.747922,104.24567 182.01662,102.122734 180.409972,99.5082569 C178.803324,96.8970459 178,93.6309908 178,89.7100917 L195.99446,89.7100917 C195.99446,91.1814495 196.317396,92.3245688 196.797784,92.9761468 C197.279778,93.7926606 198.243767,94.2842018 199.689751,94.6091743 C201.137341,94.9357798 203.224377,95.1007156 206.116343,95.1007156 C209.811634,95.1007156 212.221607,94.6091743 213.506925,93.7926606 C214.79385,92.9761468 215.434903,91.8346606 215.434903,90.3649358 C215.434903,89.2201835 214.952909,88.242 213.990526,87.4254862 C213.024931,86.6089725 211.580554,86.282367 209.65097,86.282367 L202.099723,86.282367 C195.833795,86.282367 191.33518,85.3025505 188.284155,83.1779817 C185.229917,81.2199817 183.783934,78.4438349 183.783934,75.1777798 C183.783934,73.054844 184.426593,70.9302752 185.711911,68.9722752 C186.99723,67.0126422 188.603878,65.3796147 190.694127,64.0731927 C186.99723,62.1135596 184.426593,59.8256881 182.819945,57.2144771 C181.213296,54.6 180.409972,51.6605505 180.409972,47.9062202 C180.409972,41.3741101 182.660886,36.3117248 187.31856,32.7190642 C191.977839,29.1264037 198.083102,27.3300734 205.795014,27.3300734 C210.936288,27.4933761 215.597175,26.8385321 219.613795,25.3704404 C223.630416,23.8990826 227.806094,21.6144771 231.663657,19 L236,33.535578 Z" id="Fill-7" fill="#303030"></path>
                <mask id="mask-2" fill="white">
                    <use xlink:href="#path-1"></use>
                </mask>
                <g id="Clip-10"></g>
                <polygon id="Fill-9" fill="#303030" mask="url(#mask-2)" points="241 85 261 85 261 30 241 30"></polygon>
                <path d="M308,82.2775229 C305.874525,83.7431193 303.26019,84.8830275 300.152091,85.6972477 C297.047262,86.5114679 294.267795,87 291.486692,87 C284.619772,87 279.714829,85.0458716 276.444867,81.3004587 C273.174905,77.5550459 271.539924,72.0183486 271.539924,64.690367 L271.539924,43.8463303 L265,43.8463303 L265,30.0045872 L271.539924,30.0045872 L271.539924,18.4426606 L291.977186,16 L291.977186,29.8417431 L304.404677,29.8417431 L302.277567,43.6834862 L291.977186,43.6834862 L291.977186,64.3646789 C291.977186,66.8073394 292.304183,68.4357798 293.121673,69.412844 C293.939163,70.3899083 294.920152,70.8784404 296.391635,70.8784404 C298.190114,70.8784404 299.825095,70.3899083 301.625209,69.412844 L308,82.2775229 Z" id="Fill-11" fill="#303030" mask="url(#mask-2)"></path>
                <path d="M258.714286,3.11799388 C260.85,5.25248153 262,7.87954325 262,10.999179 C262,14.1188148 260.85,16.7458766 258.714286,18.8820061 C256.578571,21.0148519 253.785714,22 250.5,22 C247.214286,22 244.421429,21.0148519 242.285714,18.8820061 C240.15,16.7458766 239,14.1188148 239,10.999179 C239,7.87954325 240.15,5.25248153 242.285714,3.11799388 C244.421429,0.983506232 247.214286,0 250.5,0 C253.785714,0 256.578571,0.983506232 258.714286,3.11799388" id="Fill-12" fill="#4A90E2" mask="url(#mask-2)"></path>
            </g>
        </g>
    </g>
</svg>