<?xml version="1.0" encoding="UTF-8"?>
<svg width="201px" height="171px" viewBox="0 0 201 171" version="1.1" xmlns="http://www.w3.org/2000/svg" xmlns:xlink="http://www.w3.org/1999/xlink">
    <!-- Generator: Sketch 52.4 (67378) - http://www.bohemiancoding.com/sketch -->
    <title>Budgit_icon Copy</title>
    <desc>Created with Sketch.</desc>
    <defs>
        <polygon id="path-1" points="0 0.332796816 200.891531 0.332796816 200.891531 119.252192 0 119.252192"></polygon>
        <polygon id="path-3" points="0 0.332796816 200.891531 0.332796816 200.891531 119.253249 0 119.253249"></polygon>
        <path d="M120.824135,0.92068705 L2.33061482,70.0202271 C-0.529737505,71.6865012 -0.529737505,75.8550107 2.33061482,77.524109 L40.7286778,99.9143143 C59.4705563,110.843943 76.7193476,117.675667 92.4890319,120.41231 C108.253124,123.146129 123.136463,120.432079 137.133456,112.27016 C146.139511,107.017161 150.28884,101.52128 149.587033,95.7881677 C149.273876,93.2407453 148.362366,90.6679051 146.852502,88.0781197 C145.004318,84.9121989 147.573882,80.9611523 151.158409,81.5683539 C159.118744,82.9183184 167.260823,83.0397587 175.584644,81.9383233 C175.948129,81.8931362 176.314411,81.7971136 176.652732,81.6643765 C192.755146,75.43703 200.832915,68.3059417 200.891632,60.2711115 L200.891632,60.0988357 C200.874855,57.7067438 200.15068,55.2327504 198.71631,52.6796796 C193.778498,43.9105591 181.822616,33.9919918 162.837482,22.9211537 L125.113265,0.92068705 C124.447807,0.53094836 123.709652,0.338903209 122.9687,0.338903209 C122.227749,0.338903209 121.486797,0.53094836 120.824135,0.92068705" id="path-5"></path>
    </defs>
    <g id="Page-1" stroke="none" stroke-width="1" fill="none" fill-rule="evenodd">
        <g id="Case-Study---Budgit" transform="translate(-1100.000000, -989.000000)">
            <g id="Budgit_icon-Copy" transform="translate(1100.000000, 989.000000)">
                <g id="Group-7" transform="translate(0.000000, 41.000000)">
                    <g id="Group-3" transform="translate(0.000000, 9.866534)">
                        <mask id="mask-2" fill="white">
                            <use xlink:href="#path-1"></use>
                        </mask>
                        <g id="Clip-2"></g>
                        <path d="M149.53968,94.0636332 C150.242137,99.693446 146.088964,105.090301 137.071766,110.245878 C123.064604,118.263508 108.164678,120.928656 92.3887788,118.241322 C76.6044842,115.556761 59.3397123,108.845358 40.5804699,98.1154345 L2.14403335,76.1258849 C-0.716170389,74.4868606 -0.716170389,70.3962331 2.14403335,68.759982 L120.750134,0.902711362 C122.076686,0.1428253 123.713887,0.1428253 125.043238,0.902711362 L162.802405,22.5067713 C181.805129,33.3781339 193.772087,43.1207607 198.711675,51.729105 C205.014199,62.7252665 197.653792,72.2155223 176.633253,80.1915527 C176.29182,80.3218981 175.9224,80.4161905 175.561377,80.4633367 C167.229844,81.5421531 159.080222,81.4229009 151.112512,80.0972602 C147.524663,79.5009993 144.952719,83.3836288 146.799817,86.4925057 C148.313878,89.035628 149.226233,91.5593372 149.53968,94.0636332" id="Fill-1" fill-opacity="0.21" fill="#FFFFFF" mask="url(#mask-2)"></path>
                    </g>
                    <g id="Group-6">
                        <mask id="mask-4" fill="white">
                            <use xlink:href="#path-3"></use>
                        </mask>
                        <g id="Clip-5"></g>
                        <path d="M149.53968,94.0636332 C150.242137,99.693446 146.088964,105.090301 137.071766,110.245878 C123.064604,118.263508 108.164678,120.928656 92.3887788,118.241322 C76.6044842,115.556761 59.3397123,108.845358 40.5804699,98.1154345 L2.14403335,76.1258849 C-0.716170389,74.4868606 -0.716170389,70.3962331 2.14403335,68.759982 L120.750134,0.902711362 C122.076686,0.1428253 123.713887,0.1428253 125.043238,0.902711362 L162.802405,22.5067713 C181.805129,33.3781339 193.772087,43.1207607 198.711675,51.729105 C205.014199,62.7252665 197.653792,72.2155223 176.633253,80.1915527 C176.29182,80.3218981 175.9224,80.4161905 175.561377,80.4633367 C167.229844,81.5421531 159.080222,81.4229009 151.112512,80.0972602 C147.524663,79.5009993 144.952719,83.3808555 146.799817,86.4925057 C148.313878,89.035628 149.226233,91.5593372 149.53968,94.0636332" id="Fill-4" fill="#262262" mask="url(#mask-4)"></path>
                    </g>
                </g>
                <g id="Group-10" transform="translate(0.000000, 25.000000)">
                    <mask id="mask-6" fill="white">
                        <use xlink:href="#path-5"></use>
                    </mask>
                    <g id="Clip-9"></g>
                    <path d="M120.824135,0.92068705 L2.33061482,70.0202271 C-0.529737505,71.6865012 -0.529737505,75.8550107 2.33061482,77.524109 L40.7286778,99.9143143 C59.4705563,110.843943 76.7193476,117.675667 92.4890319,120.41231 C108.253124,123.146129 123.136463,120.432079 137.133456,112.27016 C146.139511,107.017161 150.28884,101.52128 149.587033,95.7881677 C149.273876,93.2407453 148.362366,90.6679051 146.852502,88.0781197 C145.004318,84.9121989 147.573882,80.9611523 151.158409,81.5683539 C159.118744,82.9183184 167.260823,83.0397587 175.584644,81.9383233 C175.948129,81.8931362 176.314411,81.7971136 176.652732,81.6643765 C192.755146,75.43703 200.832915,68.3059417 200.891632,60.2711115 L200.891632,60.0988357 C200.874855,57.7067438 200.15068,55.2327504 198.71631,52.6796796 C193.778498,43.9105591 181.822616,33.9919918 162.837482,22.9211537 L125.113265,0.92068705 C124.447807,0.53094836 123.709652,0.338903209 122.9687,0.338903209 C122.227749,0.338903209 121.486797,0.53094836 120.824135,0.92068705" id="Fill-8" fill="#4A90E2" mask="url(#mask-6)"></path>
                </g>
                <g id="Group-19" transform="translate(59.000000, 0.000000)">
                    <polygon id="Fill-11" fill="#000000" points="76.947727 78.7651637 76.947727 58.2576157 0.491350808 101.274262 18.4951721 111.651743"></polygon>
                    <polygon id="Fill-13" fill="#1B75BC" points="94.9537757 68.6364866 76.9471701 58.2590056 76.9471701 78.7665537"></polygon>
                    <path d="M62.1707273,5.32523506 L64.5040404,4.09650574 L57.7741863,2.01711765 C56.2539132,1.24429694 54.6083427,0.735569638 52.8653189,0.499275536 L52.3669143,0.346379353 L52.3446393,0.443676924 C48.1875553,0.0211274726 43.4875165,1.13031978 38.5006864,4.00476803 C21.6273247,13.7289653 7.95043475,39.8213939 7.95043475,62.2804533 C7.95043475,76.7944709 13.6667733,86.2323353 22.262164,88.4729594 L28.3933756,90.5078686 L27.9812869,88.9260881 C31.2585059,88.6397552 34.8030256,87.4721844 38.5006864,85.3399776 C55.3712637,75.6130004 69.0481536,49.5205718 69.0481536,27.0615124 C69.0481536,17.3122958 66.4670305,9.85374202 62.1707273,5.32523506" id="Fill-15" fill="#DDDDDD"></path>
                    <path d="M46.744131,6.75022749 C29.8735537,16.4744247 16.1966638,42.5668534 16.1966638,65.0259127 C16.1966638,87.4849721 29.8735537,97.8096343 46.744131,88.0826571 C63.6174928,78.3584599 77.2943827,52.2660313 77.2943827,29.8069719 C77.2943827,7.34791257 63.6174928,-2.97674969 46.744131,6.75022749 Z" id="Fill-17" fill="#F1F2F2"></path>
                </g>
            </g>
        </g>
    </g>
</svg>