<?xml version="1.0" encoding="UTF-8"?>
<svg width="80px" height="80px" viewBox="0 0 80 80" version="1.1" xmlns="http://www.w3.org/2000/svg" xmlns:xlink="http://www.w3.org/1999/xlink">
    <!-- Generator: Sketch 52.4 (67378) - http://www.bohemiancoding.com/sketch -->
    <title>logo</title>
    <desc>Created with Sketch.</desc>
    <g id="Page-1" stroke="none" stroke-width="1" fill="none" fill-rule="evenodd">
        <g id="Home" transform="translate(-240.000000, -60.000000)" fill="#000000" fill-rule="nonzero">
            <g id="logo" transform="translate(240.000000, 60.000000)">
                <path d="M65.9,14.1 C47.9,-4 18.6,-4 0.5,14.1 C3.3,16.9 6.6,20.2 10.2,23.8 C4.2,29.6 0.5,37.8 0.5,46.8 C0.5,64.5 14.8,78.8 32.5,78.8 C41.3,78.8 49.8,74.9 55.6,69.2 C59.5,73.1 63,76.6 65.9,79.5 C84,61.4 84,32.1 65.9,14.1 Z M47.9,37 C44.7,33.8 40.3,31.8 35.4,31.8 C30.7,31.8 26.4,33.7 23.2,36.7 C30.5,44 38.3,51.8 45.5,59 C42.3,62.2 37.4,64.4 32.6,64.4 C22.8,64.4 14.9,56.5 14.9,46.7 C14.9,41.6 17,37.1 20.4,33.9 C17.4,30.9 12.7,26.2 13,26.5 C18.8,20.9 26.6,17.4 35.3,17.4 C44.1,17.4 52.2,21 58,26.8 L47.9,37 Z" id="Shape"></path>
            </g>
        </g>
    </g>
</svg>